<svg xmlns="http://www.w3.org/2000/svg" viewBox="0 0 512 512"><path style="fill:#ffffff" d="M412.305,122.091h.006a74.758,74.758,0,1,0-149.515,0h0V308.359h0a33.981,33.981,0,0,0,67.961,0h0V122.091h0a6.8,6.8,0,0,1,13.593,0h.006V308.356h-.006a88.349,88.349,0,0,1-176.7.122V122.091h0a6.8,6.8,0,0,1,13.59-.024V308.374a74.734,74.734,0,0,0,135.9,42.967,46.931,46.931,0,0,1-20.365,4.6A47.584,47.584,0,0,1,249.2,308.374V121.379h-.018a74.75,74.75,0,0,0-149.5.712h0V308.356h0v.715H99.7a156.307,156.307,0,0,0,312.613-.715h-.006Z"/></svg>
